<?xml version="1.0" encoding="UTF-8" standalone="no"?>
<!-- Created with Inkscape (http://www.inkscape.org/) -->

<svg
   version="1.1"
   id="svg1"
   width="1046.9333"
   height="253.77333"
   viewBox="0 0 1046.9333 253.77333"
   sodipodi:docname="DC_LOGO_MASTER.eps"
   xmlns:inkscape="http://www.inkscape.org/namespaces/inkscape"
   xmlns:sodipodi="http://sodipodi.sourceforge.net/DTD/sodipodi-0.dtd"
   xmlns="http://www.w3.org/2000/svg"
   xmlns:svg="http://www.w3.org/2000/svg">
  <defs
     id="defs1" />
  <sodipodi:namedview
     id="namedview1"
     pagecolor="#ffffff"
     bordercolor="#000000"
     borderopacity="0.25"
     inkscape:showpageshadow="2"
     inkscape:pageopacity="0.0"
     inkscape:pagecheckerboard="0"
     inkscape:deskcolor="#d1d1d1">
    <inkscape:page
       x="0"
       y="0"
       inkscape:label="1"
       id="page1"
       width="1046.9333"
       height="253.77333"
       margin="0"
       bleed="0" />
  </sodipodi:namedview>
  <g
     id="g1"
     inkscape:groupmode="layer"
     inkscape:label="1">
    <g
       id="group-R5">
      <path
         id="path2"
         d="M 1058.84,1099.47 C 976.93,971.461 879.316,856.121 774.469,746.691 705.324,674.52 635.82,602.672 566.219,530.922 c -10.797,-11.102 -22.731,-21.16 -34.727,-31.024 -16.847,-13.918 -19.758,-13.558 -35.195,1.204 -10.121,9.648 -20.18,19.347 -31.754,30.398 -49.379,-35.301 -95.316,-74.781 -137.809,-123.262 -6.781,21.692 -13.765,39.262 -17.675,57.453 -6.989,32.231 -16.008,65.547 -2.922,97.571 12.621,30.859 15.543,62.816 19.09,95.09 1.714,15.636 -2.664,26.957 -14.918,36.769 -18.563,14.809 -36.598,30.301 -53.907,46.5 -4.226,3.969 -7.828,12.199 -6.781,17.578 8.859,47.5 4.539,95 1.047,142.391 -6.941,94.219 -6.941,188.18 2.445,282.29 3.332,33.21 1.875,66.95 4.172,100.32 4.012,58.55 9.387,117.06 13.871,175.56 1.035,13.5 0.625,27.12 1.77,40.61 0.418,4.59 2.187,11.01 5.476,13.1 27.582,17.04 55.789,33.1 83.528,49.89 14.129,8.55 26.332,4.9 39.265,-2.97 28.153,-17.11 56.828,-33.32 85.145,-50.16 37.015,-22.06 74.664,-43.22 110.59,-66.94 64.758,-42.82 128.16,-87.5 192.554,-130.77 47.032,-31.65 95.836,-60.85 141.926,-93.81 42.91,-30.7 83.27,-65.02 124.88,-97.55 8.54,-6.73 8.54,-12.3 2.55,-21.69 M 2385.56,339.988 c -49.12,40.301 -97.14,81.961 -146.78,121.594 -56.42,44.988 -117.63,84.059 -167.79,136.867 -3.59,3.813 -12.67,5.051 -18.24,3.653 -13.56,-3.442 -26.39,-9.864 -39.9,-13.512 -4.63,-1.25 -12.09,0.57 -15.58,3.808 -12.26,11.684 -22.32,25.75 -35.14,36.711 -21.44,18.301 -34.99,39.571 -33.22,68.563 0.62,10.43 -5.17,15.277 -13.2,20.277 -36.59,22.84 -73.46,45.313 -108.96,69.77 -54.7,37.703 -108.25,77.011 -162.53,115.332 -4.02,2.816 -9.79,3.344 -14.81,4.586 -10.68,2.715 -23.41,2.351 -31.75,8.246 -44.31,31.281 -88.69,62.722 -130.82,96.827 -31.91,25.81 -60.54,55.63 -90.52,83.83 -8.23,7.72 -9.74,15.13 -0.47,24.46 17.05,17.1 32.54,35.77 49.33,53.18 30.97,32.07 61.84,64.3 93.8,95.43 41.72,40.56 84.78,79.76 126.6,120.23 37.59,36.34 74.45,73.52 111.53,110.49 83.58,83.21 178.37,152.2 274.67,219.56 38.79,27.21 74.88,58.35 112.47,87.28 10.43,8.03 10.69,18.56 6.98,28.53 -3.85,10.32 -18.14,13.39 -30.45,9.64 -3.69,-1.15 -9.22,-1.57 -12.14,0.37 -27.79,18.66 -59.03,24.76 -91.67,29.65 -43.06,6.43 -85.56,17.11 -128.11,26.86 -10.16,2.34 -17.67,0.84 -25.18,-5.88 -25.28,-22.64 -51.56,-44.22 -76.02,-67.74 -48.54,-46.66 -96.56,-93.96 -144.06,-141.72 -28.26,-28.42 -52.46,-61.42 -92.03,-76.13 -2.87,-1.09 -5.22,-4.27 -7.2,-6.93 -11.21,-15.22 -23.2,-29.98 -33.01,-46.09 -4.27,-6.99 -5.31,-16.68 -5.68,-25.24 -0.42,-11.11 1.57,-22.26 2.15,-33.41 0.51,-9.61 -2.87,-15.03 -13.93,-15.91 -21.69,-1.72 -43.38,-4.44 -64.96,-7.77 -5.33,-0.84 -11.69,-4.54 -14.81,-8.91 -23.42,-32.65 -44.48,-67.17 -69.51,-98.44 -38.68,-48.45 -80.08,-94.75 -120.13,-142.09 -6.62,-7.88 -12.62,-8.75 -20.54,-1.82 -18.25,15.89 -37.18,31.07 -55.32,47.13 -65.96,58.55 -131.97,117.11 -197.458,176.19 -14.445,13.08 -29.094,17.61 -47.192,9.58 -1.511,-0.72 -3.589,-0.1 -7.718,-0.1 0,11.84 0.582,22.89 -0.203,33.85 -0.368,5.36 -1.985,11.51 -5.219,15.52 -8.184,10.23 -17.41,19.62 -26.637,28.9 -70.547,70.8 -141.461,141.24 -211.644,212.41 -11.832,12.05 -25.028,17.79 -40.981,18.61 -45.519,2.41 -91.039,4.86 -136.609,6.58 -24.039,0.89 -24.039,0.27 -31.543,-21.74 -0.731,-2.19 -2.09,-4.17 -4.02,-7.98 -5.152,4.01 -9.797,7.15 -13.914,10.89 -6.414,5.96 -11.472,15.49 -18.875,17.74 -16.375,4.84 -20.179,17.87 -25.969,30.55 -4.062,8.82 -8.136,17.78 -13.925,25.39 -2.868,3.75 -9.852,6.83 -14.539,6.36 -19.293,-2.03 -38.59,-4.74 -57.571,-8.71 -42.695,-8.91 -84.98,-20.39 -127.949,-27.58 -26.59,-4.48 -51.617,-0.42 -69.6093,26.33 -14.7539,21.84 -35.2461,39.78 -37.3789,69.76 -7.2031,-3.39 -11.4258,-5.62 -15.8555,-7.29 -27.5312,-10.49 -47.44921,-25.86 -39.05467,-59.86 0.47265,-1.78 -0.10547,-3.87 -0.10547,-5.79 -0.3125,-66.52 -1.35938,-133.11 -0.57032,-199.65 0.625,-53.39 5.47266,-106.82 4.53516,-160.17 -0.57031,-31.44 9.0234,-52.51 36.7578,-67 17.3633,-9.07 33.2656,-20.97 51.3594,-32.59 -6.207,-5.52 -10.8438,-10.32 -16.168,-14.24 -14.8515,-10.89 -29.8242,-21.68 -45.0976,-32 -8.086,-5.48 -13.9688,-11.06 -12.7735,-22.22 0.418,-3.81 -2.9218,-9.33 -6.207,-12.05 C 5.65234,1272 2.73047,1260 2.26563,1247.18 1.89844,1237.54 3.9375,1227.83 3.66797,1218.14 2.57813,1172.56 -0.289063,1127 0.0234375,1081.43 0.703125,983.77 0.757813,886.051 5.1875,788.551 10.2969,675.57 19.6836,562.781 27.707,449.941 c 2.0352,-28.711 0.3633,-21.839 27.0078,-31.531 3.8594,-1.41 8.711,0.36 12.9375,-0.371 12.0938,-1.98 24.0899,-4.527 34.8787,-6.68 -7.5115,-17.308 -17.0505,-30.597 -18.8747,-44.879 -6.9375,-53.558 2.2421,-107.73 -4.9571,-161.691 -2.7578,-20.758 5.7344,-42.859 8.086,-64.5 1.5078,-14.289 9.4843,-16.219 21.8478,-16.32 60.113,-0.321 117.371,15.543 174.047,32.121 59.07,17.25 116.738,38.949 177.953,48.949 19.969,3.293 38.113,15.02 42.855,38.231 2.09,10.269 7.512,11.878 17.578,11.789 10.004,-0.118 21.582,2.441 29.719,7.91 14.391,9.652 27.422,21.691 39.68,34.011 79.879,80.079 158.871,160.891 239.117,240.559 43.012,42.723 87.902,83.539 131.859,125.301 41.769,39.672 85.309,77.742 114.399,128.789 4.74,8.391 10.64,16.211 16.52,23.883 29.72,38.328 59.81,76.34 89.22,114.804 10.95,14.286 12.98,15.489 28.21,6.219 58.03,-35.156 116.27,-69.976 173.89,-105.797 70.07,-43.547 139.84,-87.547 209.24,-132.027 67.94,-43.531 131.49,-92.699 192.6,-145.52 62.31,-53.863 127.64,-104.179 191.26,-156.57 16.74,-13.781 34.25,-23 56.47,-23.109 11.57,-0.051 23.14,-2.614 34.62,-4.582 33.58,-5.739 34.09,-5.942 27.22,-39.481 -1.99,-9.75 0.31,-15.527 7.81,-20.898 19.3,-13.832 38.12,-28.313 57.52,-41.93 41.97,-29.461 86.54,-53.543 136.76,-65.949 9.08,-2.25 16.89,-2.82 23.15,5.988 24.87,34.988 54.44,66.699 70.91,107.41 4.7,11.621 3.86,18.102 -5.68,25.918"
         style="fill:#937d37;fill-opacity:1;fill-rule:nonzero;stroke:none"
         transform="matrix(0.13333333,0,0,-0.13333333,0,253.77333)" />
      <path
         id="path3"
         d="m 7520.9,1783.87 c 0,-5.09 16.25,-27.46 35.58,-49.82 l 35.58,-38.62 v -249.1 c 0,-201.33 3.04,-252.13 14.21,-261.29 20.28,-17.31 106.39,-25.44 147.06,-14.24 49.82,13.22 51.84,31.52 4.07,35.59 l -38.66,3.03 -10.14,579.53 -93.22,3.05 c -59.92,2.04 -94.48,-1.03 -94.48,-8.13 m -361.45,25.93 c -23.43,-7.14 -54.99,-20.36 -68.2,-29.5 -23.32,-15.23 -29.44,-15.23 -90.34,6.11 -55.86,19.33 -67.06,20.35 -81.26,9.15 -15.27,-13.21 -15.27,-16.25 8.13,-40.66 l 26.43,-27.47 2.01,-278.56 3.08,-279.58 64.96,-3.08 c 35.55,-2.02 68.01,1.03 73.1,5.08 4.06,4.07 1.02,33.57 -7.1,64.07 -18.3,67.09 -15.23,413.78 4.06,459.53 13.22,31.52 79.36,69.15 122.12,69.15 42.72,0 107.88,-73.2 128.24,-143.34 20.31,-68.12 21.34,-213.52 1.02,-281.64 -9.15,-28.48 -33.56,-74.24 -54.95,-100.67 -50.92,-65.04 -57.03,-85.39 -33.6,-114.86 27.49,-33.57 58.02,-21.38 49.89,19.29 -6.11,27.46 -1.02,32.54 41.7,61.02 62.01,39.64 98.61,78.3 117.94,125.04 36.61,86.43 28.48,279.59 -13.22,362.98 -55.93,108.79 -172.88,155.57 -294.01,117.94 m -611.67,0 c -23.38,-7.14 -54.94,-20.36 -68.15,-29.5 -23.36,-15.23 -29.43,-15.23 -90.38,6.11 -55.85,19.33 -67.02,20.35 -81.26,9.15 -15.26,-13.21 -15.26,-16.25 8.13,-40.66 l 26.42,-27.47 2.06,-278.56 3.04,-279.58 64.97,-3.08 c 35.54,-2.02 68.05,1.03 73.09,5.08 4.1,4.07 1.03,33.57 -7.1,64.07 -18.26,67.09 -15.23,413.78 4.07,459.53 13.21,31.52 79.36,69.15 122.11,69.15 42.76,0 107.92,-73.2 128.23,-143.34 20.36,-68.12 21.39,-213.52 1.03,-281.64 -9.15,-28.48 -33.53,-74.24 -54.94,-100.67 -50.92,-65.04 -57,-85.39 -33.61,-114.86 27.49,-33.57 58.06,-21.38 49.94,19.29 -6.12,27.46 -1.03,32.54 41.65,61.02 62.04,39.64 98.65,78.3 117.94,125.04 36.61,86.43 28.48,279.59 -13.21,362.98 -55.9,108.79 -172.89,155.57 -294.03,117.94 m -799.65,-89.46 c -24.41,-13.21 -57.94,-42.72 -74.24,-66.11 -26.43,-36.6 -30.49,-53.88 -34.55,-129.12 -3.08,-47.79 1.02,-107.75 7.1,-134.18 16.29,-65.09 73.21,-147.45 133.2,-191.16 45.76,-33.56 53.89,-35.58 126.08,-35.58 42.67,0 77.27,4.07 77.27,9.16 0,5.08 -22.37,23.39 -50.84,41.65 -162.68,104.73 -226.74,274.55 -151.48,404.67 16.26,29.47 47.77,66.08 70.14,81.34 22.37,15.27 39.64,30.49 40.67,35.58 1.02,17.27 -100.67,6.12 -143.35,-16.25 m 252.13,37.59 c -4.06,-4.07 20.33,-32.54 52.87,-64.05 120.98,-116.93 135.21,-264.33 40.66,-450.4 -16.25,-32.53 -29.46,-60.98 -29.46,-65.05 0,-11.19 66.07,8.13 108.79,32.52 83.34,47.79 107.76,132.17 85.4,303.99 -16.29,125.05 -50.85,195.22 -112.85,226.74 -42.73,21.34 -130.14,31.52 -145.41,16.25 m -722.91,51.87 c -23.43,-7.14 -54.99,-20.36 -68.2,-29.5 -23.35,-15.23 -29.43,-15.23 -90.33,6.11 -55.86,19.33 -67.07,20.35 -81.3,9.15 -15.23,-13.21 -15.23,-16.25 8.16,-40.66 l 26.43,-27.47 2.01,-278.56 3.08,-279.58 64.97,-3.08 c 35.54,-2.02 68.01,1.03 73.1,5.08 4.06,4.07 1.02,33.57 -7.1,64.07 -18.3,67.09 -15.23,413.78 4.05,459.53 13.22,31.52 79.37,69.15 122.09,69.15 42.75,0 107.91,-73.2 128.27,-143.34 20.31,-68.12 21.34,-213.52 1.03,-281.64 -9.16,-28.48 -33.57,-74.24 -54.95,-100.67 -50.92,-65.04 -57.04,-85.39 -33.64,-114.86 27.53,-33.57 58.06,-21.38 49.93,19.29 -6.11,27.46 -1.03,32.54 41.69,61.02 62.01,39.64 98.62,78.3 117.94,125.04 36.61,86.43 28.45,279.59 -13.21,362.98 -55.94,108.79 -172.89,155.57 -294.02,117.94 m -579.23,-37.63 c -89.42,-19.33 -94.48,-19.33 -231.37,-2.01 -116.91,15.22 -151.46,16.25 -198.25,6.08 -73.21,-15.23 -132.18,-55.9 -164.69,-113.89 -22.36,-41.65 -25.43,-56.92 -24.41,-157.58 0,-91.48 4.07,-122 22.37,-168.75 27.45,-68.12 85.39,-139.28 131.15,-157.59 31.52,-14.24 84.38,-19.32 84.38,-9.14 0,3.03 -21.34,51.83 -46.74,108.79 -26.44,57.94 -55.94,129.1 -66.11,159.6 -38.63,109.81 -18.31,201.32 58.97,264.35 31.51,26.44 46.78,31.52 89.46,31.52 42.72,0 57.99,-5.08 89.5,-31.52 l 37.59,-30.52 2.05,-251.12 3.04,-251.1 63.86,-3.08 c 34.45,-2.02 62.82,0 62.82,3.08 0,3.03 -7.07,47.76 -16.22,98.61 -27.34,158.61 -2.01,397.53 46.7,437.17 15.23,12.19 39.61,18.31 76.21,18.31 48.77,0 55.9,-3.04 80.28,-35.59 66.11,-86.42 92.54,-213.52 67.1,-318.24 -6.08,-29.46 -35.59,-86.42 -67.1,-134.19 -30.5,-45.76 -54.91,-87.45 -54.91,-91.52 0,-8.12 66.11,-50.85 78.3,-50.85 3.04,0 3.04,16.3 1.03,36.61 -4.06,32.55 0,38.66 37.62,65.09 102.68,71.15 144.38,160.62 134.2,289.77 -10.18,115.89 -31.52,163.69 -109.81,241.95 -37.6,37.63 -74.2,68.12 -81.34,67.1 -8.13,-0.99 -54.91,-10.13 -105.68,-21.34 m -1176.08,22.36 c -27.45,-11.15 -28.48,-18.29 -7.1,-41.69 15.23,-16.25 14.25,-22.36 -4.06,-72.19 -62.05,-165.71 -20.35,-349.72 104.69,-463.6 51.87,-47.76 124.05,-79.28 159.63,-69.14 7.1,2.05 39.64,12.22 71.17,22.37 54.9,17.31 59.99,17.31 94.47,1.01 43.67,-20.31 106.63,-23.38 106.63,-4.05 0,7.1 -10.14,51.86 -21.34,99.63 -20.32,78.3 -21.35,103.7 -16.26,295.84 3.04,144.42 0.99,213.53 -6.11,220.67 -12.15,12.18 -87.26,15.22 -104.54,3.03 -8.12,-5.09 -9.11,-45.76 -3.04,-144.37 7.1,-127.1 4.07,-319.24 -7.1,-374.14 -5.08,-25.44 -58.97,-63.04 -91.51,-63.04 -28.48,0 -105.72,69.11 -145.39,130.14 -17.28,26.43 -38.62,79.28 -48.8,115.89 -15.27,58.97 -16.25,77.27 -5.08,142.35 7.13,40.67 24.41,98.62 37.62,127.1 22.37,49.82 22.37,54.91 7.1,63.04 -28.44,14.23 -96.56,20.31 -120.98,11.15 m -535.93,-98.19 c -125.05,-62.01 -183.04,-162.67 -167.77,-291.82 8.13,-77.27 32.55,-134.19 81.34,-187.06 65.09,-72.18 200.31,-123.02 242.98,-90.48 17.28,13.22 15.27,16.26 -40.66,54.91 -106.75,72.18 -170.8,183 -170.8,292.8 0,84.38 44.72,146.38 139.28,195.22 27.45,13.21 47.81,29.47 44.73,36.6 -7.11,23.36 -71.16,19.3 -129.1,-10.17 m -212.5,184.02 c -34.55,-28.48 -65.09,-78.31 -54.9,-89.46 4.05,-3.08 75.25,-6.12 158.6,-6.12 242.99,0 323.3,-22.37 389.41,-108.79 56.92,-74.2 78.3,-146.39 73.21,-252.14 -5.09,-103.71 -26.43,-163.7 -84.41,-234.86 -19.29,-23.39 -35.58,-45.75 -35.58,-48.79 0,-13.22 79.32,-4.06 118.96,13.21 32.55,15.27 48.8,31.52 68.13,70.14 52.85,104.72 60,294.85 15.23,413.82 -25.41,68.11 -101.66,150.45 -165.72,178.93 -25.4,11.2 -110.8,28.48 -196.21,40.66 -136.23,18.31 -203.33,31.52 -240.96,45.76 -7.14,3.04 -27.45,-7.1 -45.76,-22.36"
         style="fill:#231f20;fill-opacity:1;fill-rule:nonzero;stroke:none"
         transform="matrix(0.13333333,0,0,-0.13333333,0,253.77333)" />
      <path
         id="path4"
         d="M 7543.84,730.18 C 7460.53,703.398 7420.85,675.609 7403,629.961 c -19.82,-49.602 -19.82,-80.34 -1.97,-123.992 19.82,-45.598 47.6,-61.5 152.75,-84.321 148.77,-31.699 184.49,-59.488 178.52,-145.769 -2.97,-44.641 -5.93,-49.609 -52.57,-79.359 -87.28,-57.52 -146.78,-35.7 -203.34,77.359 -15.86,30.75 -33.71,59.492 -39.68,63.5 -4.93,2.961 -22.79,-4.008 -39.68,-15.899 -40.64,-30.742 -40.64,-75.378 0,-120.992 35.71,-40.668 86.31,-55.566 214.27,-63.488 112.07,-6.941 148.78,3.949 202.35,63.488 36.72,39.672 41.64,48.614 36.72,79.352 -7.97,48.601 -37.71,103.14 -67.47,124.969 -13.89,9.921 -74.39,30.742 -133.92,45.632 -107.1,26.789 -107.1,26.789 -133.88,71.418 -14.9,23.789 -27.79,50.582 -27.79,58.5 0,7.961 14.89,35.711 33.71,61.539 25.79,34.711 42.68,48.602 68.47,52.563 63.45,11.891 93.24,-2 131.92,-61.492 30.75,-48.61 36.71,-53.571 60.49,-47.649 14.89,3 30.76,9.93 35.71,14.899 23.82,23.82 -34.71,112.101 -90.24,134.89 -43.68,18.84 -115.07,16.891 -183.53,-4.929 m -539.24,14.41 c -73.31,-18.86 -98.06,-30.75 -138.63,-67.461 -49.45,-42.641 -64.31,-82.32 -64.31,-168.598 0,-125.109 36.61,-222.312 114.77,-305.633 36.6,-39.668 52.49,-48.609 100.1,-58.539 148.78,-29.75 252.91,-4.929 289.62,67.469 32.76,64.492 5.97,68.461 -67.45,10.922 -55.54,-43.629 -87.28,-49.602 -147.78,-23.82 -76.39,31.75 -128.96,107.148 -133.92,189.461 l -1.97,47.597 74.39,3 c 71.42,2.973 75.39,1.973 96.21,-24.816 l 21.82,-26.781 34.71,38.711 c 60.5,68.5 53.57,73.5 -127.95,77.457 l -118.96,1.972 -2.96,41.68 c -3.97,52.559 21.74,108.098 57.45,126.949 41.64,21.82 114.07,35.711 147.78,28.789 16.9,-4 50.61,-23.82 74.39,-44.64 48.61,-43.649 76.39,-47.637 105.18,-18.86 26.78,26.789 24.78,44.641 -6.97,67.461 -66.46,47.61 -201.35,63.461 -305.52,37.68 m -422.43,271.25 c -42.65,-21.82 -77.36,-43.641 -77.36,-48.598 0,-5.969 3.97,-9.933 7.93,-9.933 3.96,0 21.82,-11.899 39.67,-26.789 l 32.76,-27.79 -44.65,-148.781 c -63.5,-209.258 -75.39,-266.801 -75.39,-358.078 0,-132.922 34.72,-215.242 117.04,-278.699 55.56,-42.672 111.1,-57.5314 156.73,-42.672 38.68,12.8906 44.65,34.711 11.9,43.641 -45.64,11.918 -116.07,74.39 -141.85,124 -45.6,90.269 -43.64,124.98 24.82,422.539 63.46,275.765 70.42,346.2 38.68,376.94 -11.89,10.9 -25.79,6.93 -90.28,-25.78 M 6145.65,735.441 c -72.39,-16.793 -99.18,-28.64 -136.89,-60.211 -40.68,-33.519 -60.49,-72.128 -70.42,-133.628 -22.82,-143.832 51.57,-317.403 164.67,-383.864 52.56,-30.75 160.67,-41.679 227.13,-23.828 53.57,13.891 121.03,84.328 102.18,106.149 -17.87,21.82 -35.72,16.851 -78.36,-21.821 -34.71,-31.75 -42.64,-34.718 -77.39,-28.777 -52.56,8.918 -133.89,57.519 -165.63,98.211 -60.5,79.34 -79.36,189.437 -49.61,290.609 20.82,71.321 46.64,97.949 109.11,117.668 47.63,14.821 58.52,15.821 95.24,3.961 28.75,-9.851 47.6,-24.68 61.49,-47.351 16.86,-27.629 23.83,-31.59 45.65,-26.668 24.78,5.918 60.5,37.531 60.5,54.269 0,15.789 -64.5,47.379 -117.07,58.238 -64.47,13.891 -100.18,12.891 -170.6,-2.957 m -506.83,3.149 c 0,-4.969 15.86,-26.789 34.72,-48.61 l 34.71,-37.679 v -243.02 c 0,-196.41 2.96,-245.98 13.82,-254.91 19.77,-16.891 103.84,-24.82 143.47,-13.902 48.61,12.902 50.61,30.75 3.97,34.722 l -37.68,2.969 -9.89,565.391 -90.95,2.961 c -58.45,2 -92.17,-1 -92.17,-7.922 m -352.68,25.301 c -22.82,-6.961 -53.6,-19.86 -66.49,-28.782 -22.79,-14.859 -28.72,-14.859 -88.14,5.95 -54.49,18.871 -65.42,19.863 -79.32,8.941 -14.89,-12.898 -14.89,-15.859 7.94,-39.68 l 25.82,-26.789 1.96,-271.769 2.96,-272.762 63.38,-3.012 c 34.68,-1.957 66.4,1.012 71.32,4.961 4,3.973 1,32.762 -6.92,62.5 -17.82,65.473 -14.86,403.692 3.96,448.34 12.89,30.75 77.42,67.449 119.14,67.449 41.71,0 105.28,-71.406 125.1,-139.84 19.86,-66.457 20.86,-208.308 1,-274.769 -8.92,-27.789 -32.71,-72.418 -53.6,-98.207 -49.65,-63.461 -55.6,-83.313 -32.79,-112.0704 26.86,-32.7422 56.65,-20.8633 48.72,18.8204 -5.96,26.789 -1,31.75 40.67,59.539 60.5,38.668 96.21,76.391 115.04,121.988 35.71,84.321 27.78,272.762 -12.9,354.121 -54.53,106.129 -168.67,151.782 -286.85,115.071 m -780.15,-87.282 c -23.82,-12.89 -56.54,-41.679 -72.43,-64.5 -25.78,-35.711 -29.74,-52.57 -33.71,-125.961 -3,-46.628 1,-105.128 6.93,-130.918 15.9,-63.492 71.43,-143.851 129.95,-186.492 44.65,-32.75 52.58,-34.707 123,-34.707 41.64,0 75.39,3.969 75.39,8.93 0,4.961 -21.82,22.82 -49.61,40.641 -158.7,102.168 -221.2,267.839 -147.78,394.796 15.86,28.743 46.61,64.461 68.43,79.352 21.83,14.891 38.68,29.75 39.68,34.711 0.99,16.859 -98.21,5.969 -139.85,-15.852 m 245.99,36.68 c -3.97,-3.969 19.82,-31.758 51.56,-62.5 118.04,-114.07 131.93,-257.879 39.68,-439.41 -15.85,-31.738 -28.74,-59.488 -28.74,-63.457 0,-10.922 64.45,7.93 106.13,31.719 81.31,46.629 105.13,128.961 83.31,296.578 -15.89,122 -49.6,190.461 -110.1,221.203 -41.68,20.828 -126.95,30.758 -141.84,15.867 m -931.42,8.852 c -27.89,-6.969 -44.75,-23.832 -35.83,-36.711 3.97,-5.961 8.94,-162.668 11.9,-348.16 l 4,-337.27 24.6,2.98828 C 3838.97,4 3859.64,16.8906 3871.42,32.75 c 24.24,26.7695 24.24,29.75 24.24,362.039 l -1.6,334.27 -26.56,-0.989 c -15.75,-1 -36.38,-3.968 -47.2,-5.929 z m 138.89,7.918 c -2.96,-5.957 19.81,-39.68 52.57,-76.379 70.42,-75.399 91.24,-116.071 91.24,-172.602 0,-63.457 -24.78,-105.129 -80.35,-136.879 -26.75,-14.859 -48.6,-31.719 -48.6,-38.679 0,-19.821 103.17,-104.141 162.7,-132.93 72.39,-34.711 146.78,-44.629 197.38,-26.781 47.61,15.89 45.61,29.781 -8.93,43.652 -42.64,10.918 -124.99,56.551 -177.56,98.211 l -28.75,23.808 c 35.05,51.239 70.43,102.129 106.14,152.739 l -12.93,65.461 c -14.85,75.402 -28.75,106.14 -61.5,136.89 -45.6,43.641 -176.55,86.309 -191.41,63.489 M 3450.4,705.352 c -16.86,-6.922 -35.72,-19.813 -43.64,-28.743 -11.9,-15.89 -7.93,-16.898 51.57,-16.898 60.53,0 66.45,-1.961 92.24,-31.699 101.17,-120.043 110.1,-312.453 21.81,-456.301 -20.81,-33.711 -31.7,-64.473 -31.7,-90.2501 -1.01,-48.6015 13.85,-56.5703 36.67,-17.8593 9.93,16.8593 46.65,61.5074 81.36,99.1684 81.31,88.281 99.17,141.859 92.24,272.781 -2.96,49.597 -11.89,106.14 -19.85,125.988 -48.61,114.07 -186.46,184.492 -280.7,143.813 m -229.13,297.598 c -2.96,-7.966 -1.01,-45.641 4.96,-84.317 6.19,-40.684 11.16,-222.203 11.16,-437.434 0,-311.461 2,-368.027 13.92,-372.949 7.97,-3 38.75,-2.012 67.61,2.969 48.72,7.922 52.68,10.883 49.68,32.711 -1.96,13.89 -6.93,210.308 -9.93,436.429 -4.48,226.172 -11.44,417.629 -15.41,424.551 -11.89,17.86 -115.07,15.89 -121.99,-1.96 M 2900.19,735.441 c -72.39,-16.793 -99.18,-28.64 -136.89,-60.211 -40.63,-33.519 -60.49,-72.128 -70.42,-133.628 -22.78,-143.832 51.6,-317.403 164.66,-383.864 52.58,-30.75 160.72,-41.679 227.14,-23.828 53.56,13.891 121.03,84.328 102.17,106.149 -17.86,21.82 -35.72,16.851 -78.35,-21.821 -34.71,-31.75 -42.64,-34.718 -77.35,-28.777 -52.57,8.918 -133.93,57.519 -165.67,98.211 -60.5,79.34 -79.36,189.437 -49.6,290.609 20.84,71.321 46.63,97.949 109.13,117.668 47.6,14.821 58.49,15.821 95.21,3.961 28.78,-9.851 47.6,-24.68 61.49,-47.351 16.86,-27.629 23.82,-31.59 45.65,-26.668 24.78,5.918 60.5,37.531 60.5,54.269 0,15.789 -64.47,47.379 -117.04,58.238 -64.5,13.891 -100.21,12.891 -170.63,-2.957"
         style="fill:#231f20;fill-opacity:1;fill-rule:nonzero;stroke:none"
         transform="matrix(0.13333333,0,0,-0.13333333,0,253.77333)" />
    </g>
  </g>
</svg>
